<svg id="clipboard-text-search-outlined" viewBox="0 0 30.58 32.05">
    <g>
        <path
            d="M21,11.97h0M6,20.97h4.5c.12-1.02,.34-2.04,.75-3H6v3m7.35-6.15c1.83-1.82,4.31-2.85,6.9-2.85H6v3h7.23s.08-.09,.12-.15m0,13.8c.54,.53,1.12,.96,1.74,1.35H3c-1.66,0-3-1.34-3-3V5.97c0-1.65,1.35-3,3-3h6.27c.48-1.26,1.44-2.25,2.73-2.7,2.29-.84,4.88,.36,5.73,2.7h6.27c1.66,0,3,1.34,3,3V14.7c-.87-.84-1.88-1.51-3-1.98V5.97h-3v3H6v-3H3V26.97H12.05c.36,.58,.81,1.14,1.3,1.65m-1.35-24.15c0,.83,.67,1.5,1.5,1.5s1.5-.67,1.5-1.5-.67-1.5-1.5-1.5-1.5,.68-1.5,1.5M30.58,29.97l-2.08,2.08-4.68-4.6c-1.04,.65-2.27,1.02-3.57,1.02-3.75,0-6.75-3-6.75-6.75s3-6.75,6.75-6.75,6.75,3,6.75,6.75c0,1.32-.38,2.56-1.04,3.6l4.62,4.65m-6.58-8.25c0-2.07-1.68-3.75-3.75-3.75s-3.75,1.68-3.75,3.75,1.68,3.75,3.75,3.75,3.75-1.68,3.75-3.75Z" />
    </g>
</svg>