<svg id="heart-plus-outlined" viewBox="0 0 30 28.5">

    <g>
        <path
            d="M16.01,26.61l-1.01,.92-2.17-1.98C5.1,18.54,0,13.91,0,8.25,0,3.61,3.63,0,8.25,0c2.61,0,5.11,1.21,6.75,3.12,1.64-1.9,4.14-3.12,6.75-3.12,4.62,0,8.25,3.61,8.25,8.25,0,2.15-.75,4.14-2.07,6.17-.93-.45-1.96-.75-3.05-.85,1.36-1.86,2.11-3.59,2.11-5.31,0-3-2.25-5.25-5.25-5.25-2.31,0-4.56,1.5-5.35,3.54h-2.79c-.8-2.04-3.05-3.54-5.36-3.54-3,0-5.25,2.25-5.25,5.25,0,4.34,4.71,8.61,11.83,15.07l.16,.15,.06-.06c.12,1.14,.45,2.22,.95,3.19m6.5-10.11v4.5h-4.5v3h4.5v4.5h3v-4.5h4.5v-3h-4.5v-4.5h-3Z" />
    </g>
</svg>