<svg id="logo-icon-nav" x="0px" y="0px" viewBox="0 0 2080.3 2080.3" style="enable-background:new 0 0 2080.3 2080.3;"
	xml:space="preserve">
	<style type="text/css">
		svg * {
			stroke: #555;
			fill: #555;
		}

		.st0 {

			stroke: #555;
			stroke-width: 77;
			stroke-miterlimit: 10;
		}

		.st1 {

			stroke: #555;
			stroke-width: 22;
			stroke-miterlimit: 10;
		}
	</style>
	<g id="_이어_1-2">
		<g>
			<g>
				<path class="st0" d="M1039.3,2048.3C487,2048.3,37.7,1598.9,37.7,1046.6S487,45,1039.3,45S2041,494.3,2041,1046.6
				S1591.6,2048.3,1039.3,2048.3z M1039.3,80.5c-532.7,0-966.1,433.4-966.1,966.1s433.4,966.1,966.1,966.1s966.1-433.4,966.1-966.1
				S1572,80.5,1039.3,80.5z" />
				<path class="st1" d="M1936.3,815.6c-14.4-93.5-64.9-176.1-141.6-232c-76.5-55.9-170.2-78.4-264.2-63.9
				c-55.9,8.8-107.7,30.3-152.5,62.3c17.1-52.3,21.5-108.2,12.8-164.1c-14.7-93.8-65.1-176.1-141.8-232
				c-158.1-115.5-380.7-80.5-496.4,77.6c-68.2,93.8-85.5,211.9-51.4,317.7c-90.2-65.1-207.6-85.7-317.9-49.7
				C197,592.2,94.8,792.9,155.4,979.2c29.1,90.4,91.9,163.8,176.4,206.9c50.4,25.6,104.9,38.6,159.8,38.8
				c-89.7,65.6-145.4,170.9-145.4,286.9c0,195.8,159.3,355.3,355.3,355.3c157.2,0,291-102.7,337.6-244.6
				c46.6,141.8,180.4,244.6,337.6,244.6c196,0,355.3-159.6,355.3-355.3c0-115.1-54.9-219.9-143.5-285.5
				c110.8-0.7,216.1-53.3,283.8-146.3C1928.5,1003.3,1951.2,909.6,1936.3,815.6L1936.3,815.6z M1336.2,668.6
				c0.5,7.6-2.8,15.6-9.9,20.8c-10.7,7.8-25.6,5.4-33.4-5.4c-7.6-10.4-5.2-25.3,5.4-33.1c2.6-1.9,5.4-3.1,8.1-3.8
				c0.5-0.2,1.2-0.2,1.9-0.2c8.8-1.7,18,1.7,23.4,9.2c0.7,1,1.2,1.9,1.4,2.8C1335,662,1335.7,665.3,1336.2,668.6L1336.2,668.6z
				 M781.3,284.6c104.2-142.8,304.7-174,447-70.1c69.1,50.2,114.3,124.5,127.6,208.8c10.2,65.6,0.2,130.9-28.2,189.4
				c-0.5-0.2-0.7-0.5-1.2-0.5c-16.3-4-34.3-1-49.2,9.7c-26.5,19.4-32.4,56.3-13,82.9c0.5,0.5,0.9,1,1.4,1.4l-148.4,205
				c-9.5-5.2-19.2-9.5-29.6-12.8l52.3-247.6c18.9-1.4,36.9-11.8,47.3-29.6c15.6-27,7.3-61.1-18-78.6c-1.4-1-2.6-1.7-4-2.6
				c-12.6-7.1-26.8-9.5-40.2-7.1c-16.6,3.1-32,13-40.9,28.9c-16.6,28.4-6.9,64.6,21.8,81.2c0.5,0.2,1.2,0.5,1.7,0.7l-52.3,248.3
				c-5.2-0.7-10.7-1-15.9-1s-10.7,0.2-16.1,1l-53-247.9c16.8-9,29.1-25.8,31.2-46.2c3.3-31.2-18-59.2-48.5-64.6
				c-1.7-0.5-3.1-0.7-4.5-0.7c-14.4-1.7-28.4,2.1-39.8,9.7c-13.7,9.7-23.7,25.1-25.6,43.1c-3.5,32.7,20.1,61.8,52.8,65.3h1.9
				l53,247.9c-10.2,3.1-20.1,7.3-29.3,12.5L812.6,707c11.8-14.9,16.1-35.3,9.7-54.7c-9.7-29.6-40.2-46.4-70.1-39.3
				C700.6,507.9,710.5,382,781.3,284.6L781.3,284.6z M1032.5,1534.6c-4.5-1.7-8.1-4.3-10.9-7.6c-5.2-5.9-7.1-14.4-4.5-22.7
				c4-12.6,17.5-19.4,30.1-15.4c12.6,4,19.4,17.5,15.2,30.1c-0.9,3.1-2.6,5.7-4.3,7.8C1051.9,1534.3,1041.9,1537.7,1032.5,1534.6
				L1032.5,1534.6z M1039.3,1179.5c-5.7,0-11.1-0.5-16.6-1.2c-7.6-0.9-14.7-2.6-21.8-4.7c-10.7-3.3-20.8-8.3-30.1-14.2
				c-6.2-3.8-12.1-8.3-17.3-13.3c-8-7.6-15.2-16.1-21.1-25.3c-3.8-5.9-7.1-12.3-9.7-18.7c-4.3-10.2-7.3-21.1-8.5-32.2
				c-1-5.4-1.4-11.1-1.4-16.8c0-0.9,0-2.1,0.2-3.1c0-11.4,1.9-22.2,5-32.7c1.7-5.9,4-11.8,6.6-17.5c4.7-10.2,10.7-19.7,17.8-27.9
				c4-4.7,8-9,12.5-12.8c8.3-7.6,17.5-14,27.5-18.7c5-2.8,10.4-5,15.9-6.9c10.2-3.5,21.1-5.9,32.4-6.4c2.8-0.5,5.7-0.5,8.5-0.5
				s5.7,0,8.3,0.5c11.4,0.5,22.2,2.8,32.7,6.4c5.4,1.9,10.7,4,15.6,6.9c9.9,4.7,19.2,11.1,27.5,18.5c4.5,4,8.5,8.3,12.3,12.8
				c7.3,8.3,13.3,17.8,18,27.9c2.8,5.7,5,11.6,6.9,17.5c3.1,10.4,5,21.5,5,32.9c0.2,0.9,0.2,2.1,0.2,3.1c0,5.7-0.5,11.4-1.2,16.8
				c-1.4,11.1-4.3,21.8-8.5,32c-2.8,6.4-5.9,12.6-9.9,18.5c-5.7,9.5-13,18.2-21.3,25.6c-5.2,5-10.9,9.5-17,13.5
				c-9.2,5.9-19.4,10.7-30.1,14c-6.9,2.4-14.2,4-21.8,5C1050.5,1179,1045,1179.5,1039.3,1179.5L1039.3,1179.5z M1115.1,579.6
				c1.4-2.6,3.6-5,5.7-6.6c7.6-6.2,18-7.1,26.8-2.1c4,2.4,7.1,5.7,9.2,9.7c3.6,6.9,3.8,15.6-0.5,23c-6.6,11.4-21.3,15.4-32.7,8.8
				S1108.4,591.2,1115.1,579.6L1115.1,579.6z M965.9,594.3c-1.4,13.3-13.3,22.7-26.3,21.3s-22.5-13-21.1-26.3
				c0.2-3.1,1.4-6.2,2.6-8.5c4.5-8.5,13.5-13.7,23.4-12.8c4.7,0.5,8.8,2.4,12.3,5C963.1,577.7,966.6,585.8,965.9,594.3L965.9,594.3z
				 M741.7,668.2c0-0.2,0.2-0.5,0.2-0.7c1.2-9,7.1-16.8,16.1-19.7c4.5-1.4,9-1.4,13.3-0.2c0.2,0,0.3,0.1,0.5,0.2
				c7.3,1.7,13.7,7.6,16.3,15.4c4.3,12.8-2.6,26-15.4,30.3c-12.3,4-25.8-2.8-29.8-15.6c-1-2.8-1.2-5.9-1.2-8.8L741.7,668.2
				L741.7,668.2z M188.8,968.3c-54.4-167.6,37.9-348.5,205.5-403.2c32.9-10.7,66.3-15.6,99.4-15.6c82.2,0,161.5,31.5,221.3,89.7
				c-8.8,14.2-11.6,32.4-5.9,49.7c10.2,31.2,43.6,48.3,74.8,38.1c0.7-0.2,1.2-0.5,1.7-0.7L934,930.4c-8.3,6.9-15.9,14.9-22.2,23.7
				L693.9,828.6c4.7-18.5,0.2-38.8-13.3-54c-21.1-23.2-56.1-26-80.5-7.3c-1.4,1-2.4,1.9-3.8,3.1c-10.7,9.7-17.3,22.5-19.2,36
				c-2.1,16.6,2.6,34.3,14.9,47.8c22,24.6,59.4,26.5,83.8,4.5c0.5-0.5,1-1,1.4-1.4L894,982c-5,9.9-9,20.4-11.6,31.5L635.2,988
				c-3.3-18.9-15.6-35.5-34.3-44c-28.4-12.5-61.8-1-76.5,26.3c-0.7,1.4-1.4,2.6-2.1,4c-5.7,13.3-6.6,27.7-2.8,40.7
				c4.7,16.3,16.3,30.5,33.1,37.9c30.1,13.3,64.9,0,78.4-30.1c0.2-0.7,0.5-1.4,0.7-1.9l246.2,25.6c-0.5,2.1-0.5,4.5-0.5,6.6
				c0,9.5,1,18.9,2.6,27.9l-233.6,76.2c-10.7-15.6-28.7-26-49.2-26c-31.2,0-56.8,24.2-59.2,54.9
				C387.1,1207.5,237.7,1118.2,188.8,968.3L188.8,968.3z M652.3,832.2c-9.7,8.8-24.9,8-33.6-1.9c-2.1-2.1-3.5-5-4.7-7.6
				c-3.3-9-1.2-19.4,6.4-26c3.5-3.1,7.6-5,12.1-5.7c7.6-1.4,15.9,1.2,21.5,7.6C662.9,808.3,662,823.5,652.3,832.2L652.3,832.2z
				 M598.5,1008.3c-5.2,11.8-19.4,17.3-31.5,11.8c-2.8-1.2-5.4-3.1-7.3-5.2c-6.9-6.9-9-17-5-26.3c2.1-4.3,5-7.6,8.8-9.9
				c6.4-4.5,15.2-5.4,23-2.1C598.5,982.1,604,996,598.5,1008.3L598.5,1008.3z M573.2,1190.9c0-4.7,1.4-9,3.8-12.8
				c4-6.6,11.6-11.1,20.1-11.1c13.3,0,23.9,10.7,23.9,23.9s-10.7,23.7-23.9,23.7c-3.1,0-6.2-0.7-8.8-1.7
				C579.4,1209.3,573.2,1200.8,573.2,1190.9L573.2,1190.9z M701.5,1831.7c-176.4,0-319.8-143.5-319.8-319.8
				c0-69.6,22.2-134.9,61.1-188.4c28.2-38.8,65.1-71.3,108.9-94.2c10.9,12.8,27.2,21.1,45.5,21.1c32.9,0,59.4-26.5,59.4-59.4
				c0-0.7-0.2-1.2-0.2-1.9l232.7-76c4.5,11.4,10.2,21.8,16.8,31.7l-180.6,162.9c-16.1-9.9-36.7-12.1-55.4-3.8
				c-28.7,12.8-42.1,45.2-31.7,74.1c0.5,1.7,1,3.1,1.7,4.5c5.9,13.3,16.1,23.4,28.4,29.3c15.2,7.3,33.4,8.3,50,0.7
				c30.1-13.3,43.6-48.3,30.3-78.4c-0.5-0.7-0.7-1.2-1-1.7l179.9-162.6c8.8,8.5,18.7,16.1,29.3,22.2l-98,220.9
				c-18.9-2.8-38.8,3.8-52.3,18.9c-21.1,23.2-20.1,58.5,1.2,80.7c1,1.2,2.1,2.1,3.3,3.3c10.7,9.7,24.2,14.9,37.9,15.4
				c16.8,0.5,33.8-6.2,45.9-19.7c22-24.6,20.1-62-4.3-84c-0.5-0.5-1.2-0.7-1.7-1.2l97.8-220.4c11.6,4.3,23.9,6.9,36.5,8.1l0.2,240.5
				c-18.5,5.4-33.8,19.2-40.2,38.8c-9.4,29.3,5.2,60.7,33.4,72.8c-0.2,1.1-0.3,2.1-0.5,3.2C988.9,1718.3,858.2,1831.7,701.5,1831.7
				L701.5,1831.7z M703.6,1379.8c-2.8,1.4-5.9,1.9-8.8,2.1c-9.5,0.5-18.7-4.7-22.7-14c-1.9-4.3-2.4-8.8-1.7-13.3
				c1-7.6,5.9-14.9,13.7-18.2c12.1-5.4,26.3,0,31.7,12.1C721.2,1360.4,715.7,1374.6,703.6,1379.8L703.6,1379.8z M868.2,1487.5
				c-2.1,2.4-4.7,4.3-7.1,5.4c-8.5,4.3-19.2,3.3-26.5-3.3c-3.5-3.3-5.7-7.1-6.9-11.4c-2.4-7.6-0.5-16.1,5.2-22.5
				c8.8-9.9,23.9-10.7,33.6-1.7C876.2,1462.6,877.2,1477.8,868.2,1487.5L868.2,1487.5z M1696.5,1511.9
				c0,176.4-143.5,319.8-319.8,319.8c-156.7,0-287.4-113.4-314.4-262.3c-0.2-0.8-0.2-1.7-0.4-2.5c0.1-0.1,0.3-0.1,0.4-0.1
				c15.4-6.4,28.4-19.4,34.1-36.7c10.2-31.2-6.9-64.6-38.1-74.8c-0.7-0.2-1.4-0.2-1.9-0.5l-0.2-240.8c12.6-1.2,24.6-4,36.2-8.1
				l98.2,219.9c-14.7,12.3-23.2,31.2-21.1,51.6c3.3,31,30.1,54,60.8,53c1.7,0.2,3.1,0,4.7-0.2c14.4-1.4,27.2-8.1,36.7-17.8
				c11.6-12.3,18.2-29.3,16.3-47.3c-3.6-32.9-32.7-56.3-65.3-53c-0.7,0-1.2,0.2-1.9,0.5l-98.7-220.9c10.7-6.2,20.6-13.5,29.3-22
				l180.2,161.9c-8.3,17-8.3,37.9,1.9,55.6c15.6,27,49.5,37.2,77.2,23.7c1.7-0.5,2.8-1.2,4.3-2.1c12.6-7.1,21.5-18.5,26.3-31.2
				c5.7-15.9,4.5-34.1-4.5-49.9c-16.6-28.4-52.8-38.1-81.2-21.8c-0.5,0.5-0.9,0.9-1.7,1.2l-180.9-162.6c6.6-9.9,12.3-20.4,16.6-31.7
				l232.7,75.3c-0.7,19.2,7.8,38.1,24.4,50.2c25.1,18,59.4,13.8,79.6-9.1c0.2,0.1,0.4,0.2,0.7,0.3
				C1630.4,1284.1,1696.5,1391.6,1696.5,1511.9L1696.5,1511.9z M1205.3,1473.8c-1.4-13,8.1-24.9,21.3-26.3
				c12.8-1.2,24.6,8.3,26,21.3c0.2,3.1-0.2,6.2-0.9,9c-2.4,9.2-10.4,16.3-20.1,17.3c-4.7,0.5-9.2-0.5-13.3-2.4
				C1211.5,1489.4,1206,1482.3,1205.3,1473.8L1205.3,1473.8z M1373.4,1336.7c11.4-6.4,25.8-2.6,32.4,9c1.7,2.6,2.6,5.7,3.1,8.3
				c1.4,9.7-3.1,19.2-11.6,24.2c-4,2.4-8.5,3.3-13,3.1c-7.6,0-15.4-4.5-19.7-11.8C1358,1358,1362,1343.3,1373.4,1336.7z
				 M1505.7,1190.8c-0.1,4.6-1.6,9.1-4.5,13.1c-2.8,3.8-6.4,6.4-10.7,8.1c-7.1,3.1-15.9,2.4-22.7-2.6c-10.7-7.8-13-22.7-5.2-33.6
				c7.6-10.4,22.5-12.8,33.1-5c2.6,1.9,4.5,4.3,6.2,6.4c0.5,0.8,0.8,1.8,1.2,2.7c-0.1,0-0.2-0.1-0.2-0.1
				C1504.8,1183,1505.7,1186.8,1505.7,1190.8L1505.7,1190.8z M1844,1059.2c-71,97.1-187,145.3-302.5,128.6h-0.2c0,0,0,0,0,0
				c0-0.7,0.1-1.4,0-2.1c-1.4-16.8-9.7-33.1-24.4-43.8c-26.8-19.4-63.7-13.5-83.1,13c-0.2,0.7-0.5,1.2-0.9,1.7l-234.1-75.8
				c1.9-9,2.6-18.2,2.6-27.7c0-2.4,0-4.7-0.5-6.9l246-26.3c7.1,17.8,22.7,31.7,42.6,36c30.5,6.4,60.6-11.8,69.4-41.4
				c0.7-1.7,0.9-3.1,1.2-4.7c3.1-14,0.7-28.4-5.7-40.2c-8.1-14.9-22.2-26.3-40-30.1c-32.2-6.9-63.7,13.5-70.6,45.7
				c0,0.7,0,1.2-0.2,1.9l-247.4,26.3c-2.6-11.1-6.4-21.5-11.6-31.5l216.4-125.2c13.7,13.3,33.4,19.7,53.5,15.4
				c30.5-6.6,50.4-35.5,46.4-66c0-1.7-0.5-3.1-0.7-4.7c-3.1-14-10.9-26.3-21.5-34.6c-13.5-10.2-31-14.9-49-11.1
				c-32.2,6.9-52.6,38.3-45.7,70.5c0,0.5,0.5,1.2,0.5,1.7l-217.6,125.9c-6.4-8.8-14.2-16.6-22.5-23.7l148-204.1
				c18,6.6,38.6,4.3,55.2-7.6c24.9-18.2,31.5-51.8,16.3-77.9c46.9-45.7,106.5-75.3,172.3-85.7c84-13.5,168.8,7.1,237.9,57.5
				c69.1,50.4,114.3,124.5,127.6,209C1914.8,905.6,1894.2,990.1,1844,1059.2L1844,1059.2z M1478.5,992.5
				c2.6-12.8,15.4-20.8,28.4-18.2c2.8,0.7,5.7,2.1,8.1,3.5c8.1,5.2,12.3,14.9,10.4,24.6c-1.2,4.7-3.3,8.5-6.4,11.8
				c-5.4,5.7-13.7,8.3-22,6.6C1483.9,1018,1475.6,1005.5,1478.5,992.5L1478.5,992.5z M1437,790.5c2.8-0.7,6.2-0.7,8.8-0.2
				c9.7,1.7,17.3,8.5,19.4,18.2c0.9,4.7,0.5,9.2-0.9,13.5c-2.6,7.3-9,13.3-17.5,14.9c-12.8,2.8-25.6-5.4-28.2-18.5
				C1415.7,805.9,1424,793.1,1437,790.5L1437,790.5z" />
			</g>
			<circle class="st0" cx="945.4" cy="583.2" r="32.5" />
			<circle class="st0" cx="1137.3" cy="601.8" r="22.2" />
			<circle class="st0" cx="1316.5" cy="666.6" r="28" />
			<circle class="st0" cx="1441.9" cy="814.5" r="23.8" />
			<circle class="st0" cx="1501.1" cy="997.9" r="23.2" />
			<circle class="st0" cx="1488.6" cy="1189" r="22.9" />
			<circle class="st0" cx="1382" cy="1355.9" r="22.3" />
			<circle class="st0" cx="1229.2" cy="1471.4" r="24.1" />
			<circle class="st0" cx="1039.9" cy="1511.7" r="24" />
			<circle class="st0" cx="850.8" cy="1471.4" r="24.1" />
			<circle class="st0" cx="700" cy="1352.2" r="15.7" />
			<circle class="st0" cx="600.9" cy="1190.3" r="24.2" />
			<circle class="st0" cx="573.4" cy="988.6" r="9.9" />
			<circle class="st0" cx="633.3" cy="824.1" r="19" />
			<circle class="st0" cx="765.6" cy="662.4" r="23.8" />
			<circle class="st0" cx="1038.5" cy="1062.5" r="104.5" />
		</g>
	</g>
</svg>