<svg id="logo" viewBox="0 0 25.84 25.84">

    <g>
        <g>
            <path
                d="M12.92,25.84C5.79,25.84,0,20.04,0,12.92S5.79,0,12.92,0s12.92,5.79,12.92,12.92-5.79,12.92-12.92,12.92ZM12.92,.42C6.02,.42,.42,6.02,.42,12.92s5.61,12.5,12.5,12.5,12.5-5.61,12.5-12.5S19.81,.42,12.92,.42Z" />
            <path
                d="M12.92,24.65c-6.47,0-11.73-5.26-11.73-11.73S6.45,1.18,12.92,1.18s11.73,5.26,11.73,11.73-5.26,11.73-11.73,11.73ZM12.92,1.6C6.68,1.6,1.6,6.68,1.6,12.92s5.08,11.32,11.32,11.32,11.32-5.08,11.32-11.32S19.16,1.6,12.92,1.6Z" />
            <path
                d="M23.43,10.21c-.17-1.1-.76-2.06-1.66-2.72-.9-.65-1.99-.92-3.1-.75-.65,.1-1.26,.35-1.79,.73,.2-.61,.25-1.27,.15-1.92-.17-1.1-.76-2.06-1.66-2.72-1.85-1.35-4.46-.94-5.82,.91-.8,1.1-1,2.48-.6,3.72-1.06-.76-2.43-1-3.72-.58-2.18,.71-3.38,3.06-2.67,5.24,.34,1.06,1.08,1.92,2.07,2.42,.59,.3,1.23,.45,1.87,.45-1.05,.77-1.7,2-1.7,3.36,0,2.29,1.87,4.16,4.16,4.16,1.84,0,3.41-1.2,3.95-2.86,.55,1.66,2.11,2.86,3.95,2.86,2.3,0,4.16-1.87,4.16-4.16,0-1.35-.64-2.58-1.68-3.34,1.3,0,2.53-.62,3.33-1.71,.66-.9,.92-2,.75-3.1Zm-7.03-1.72c0,.09-.03,.18-.12,.24-.12,.09-.3,.06-.39-.06-.09-.12-.06-.3,.06-.39,.03-.02,.06-.04,.09-.04,0,0,.01,0,.02,0,.1-.02,.21,.02,.27,.11,0,.01,.01,.02,.02,.03,.02,.04,.03,.07,.04,.11ZM9.89,3.99c1.22-1.67,3.57-2.04,5.24-.82,.81,.59,1.34,1.46,1.49,2.45,.12,.77,0,1.53-.33,2.22,0,0,0,0-.01,0-.19-.05-.4-.01-.58,.11-.31,.23-.38,.66-.15,.97l.02,.02-1.74,2.4c-.11-.06-.22-.11-.35-.15l.61-2.9c.22-.02,.43-.14,.55-.35,.18-.32,.09-.72-.21-.92l-.05-.03c-.15-.08-.31-.11-.47-.08-.19,.04-.37,.15-.48,.34-.19,.33-.08,.76,.26,.95h.02l-.61,2.92c-.06,0-.12-.01-.19-.01s-.12,0-.19,.01l-.62-2.9c.2-.11,.34-.3,.37-.54,.04-.37-.21-.69-.57-.76-.02,0-.04,0-.05,0-.17-.02-.33,.02-.47,.11-.16,.11-.28,.29-.3,.5-.04,.38,.24,.72,.62,.77h.02l.62,2.9c-.12,.04-.24,.09-.34,.15l-1.74-2.39c.14-.17,.19-.41,.11-.64-.11-.35-.47-.54-.82-.46-.6-1.23-.49-2.71,.34-3.85Zm2.94,14.64c-.05-.02-.09-.05-.13-.09-.06-.07-.08-.17-.05-.27,.05-.15,.21-.23,.35-.18,.15,.05,.23,.21,.18,.35-.01,.04-.03,.07-.05,.09-.07,.09-.19,.13-.3,.09Zm.08-4.16c-.07,0-.13,0-.19-.01-.09-.01-.17-.03-.26-.06-.12-.04-.24-.1-.35-.17-.07-.04-.14-.1-.2-.16-.09-.09-.18-.19-.25-.3-.04-.07-.08-.14-.11-.22-.05-.12-.09-.25-.1-.38-.01-.06-.02-.13-.02-.2,0-.01,0-.02,0-.04,0-.13,.02-.26,.06-.38,.02-.07,.05-.14,.08-.21,.06-.12,.12-.23,.21-.33,.05-.06,.09-.11,.15-.15,.1-.09,.21-.16,.32-.22,.06-.03,.12-.06,.19-.08,.12-.04,.25-.07,.38-.07,.03,0,.07,0,.1,0s.07,0,.1,0c.13,0,.26,.03,.38,.07,.06,.02,.12,.05,.18,.08,.12,.06,.22,.13,.32,.22,.05,.05,.1,.1,.14,.15,.09,.1,.16,.21,.21,.33,.03,.07,.06,.14,.08,.21,.04,.12,.06,.25,.06,.39,0,.01,0,.02,0,.04,0,.07,0,.13-.01,.2-.02,.13-.05,.26-.1,.37-.03,.07-.07,.15-.12,.22-.07,.11-.15,.21-.25,.3-.06,.06-.13,.11-.2,.16-.11,.07-.23,.12-.35,.16-.08,.03-.17,.05-.26,.06-.06,0-.13,.01-.19,.01Zm.89-7.03s.04-.06,.07-.08c.09-.07,.21-.08,.31-.02,.05,.03,.08,.07,.11,.11,.04,.08,.04,.18,0,.27-.08,.13-.25,.18-.38,.1-.13-.08-.18-.25-.1-.38Zm-1.75,.17c-.02,.16-.16,.27-.31,.25-.15-.02-.26-.15-.25-.31,0-.04,.02-.07,.03-.1,.05-.1,.16-.16,.27-.15,.06,0,.1,.03,.14,.06,.07,.06,.11,.15,.11,.25Zm-2.63,.87h0c.01-.11,.08-.21,.19-.24,.05-.02,.11-.02,.16,0h0c.09,.02,.16,.09,.19,.18,.05,.15-.03,.31-.18,.35-.14,.05-.3-.03-.35-.18-.01-.03-.01-.07-.01-.1h0Zm-6.48,3.51c-.64-1.96,.44-4.08,2.41-4.72,.39-.12,.78-.18,1.16-.18,.96,0,1.89,.37,2.59,1.05-.1,.17-.14,.38-.07,.58,.12,.37,.51,.57,.88,.45h.02l1.74,2.38c-.1,.08-.19,.17-.26,.28l-2.55-1.47c.06-.22,0-.45-.16-.63-.25-.27-.66-.31-.94-.09-.02,.01-.03,.02-.04,.04-.12,.11-.2,.26-.22,.42-.02,.19,.03,.4,.17,.56,.26,.29,.7,.31,.98,.05l.02-.02,2.54,1.46c-.06,.12-.11,.24-.14,.37l-2.9-.3c-.04-.22-.18-.42-.4-.52-.33-.15-.72-.01-.9,.31,0,.02-.02,.03-.02,.05-.07,.16-.08,.32-.03,.48,.06,.19,.19,.36,.39,.44,.35,.16,.76,0,.92-.35v-.02l2.89,.3s0,.05,0,.08c0,.11,.01,.22,.03,.33l-2.74,.89c-.12-.18-.34-.31-.58-.31-.37,0-.67,.28-.69,.64-1.77,.25-3.52-.8-4.09-2.55Zm5.43-1.59c-.11,.1-.29,.09-.39-.02-.02-.02-.04-.06-.06-.09-.04-.11-.01-.23,.07-.31,.04-.04,.09-.06,.14-.07,.09-.02,.19,.01,.25,.09,.11,.11,.09,.29-.02,.39Zm-.63,2.06c-.06,.14-.23,.2-.37,.14-.03-.01-.06-.04-.09-.06-.08-.08-.11-.2-.06-.31,.02-.05,.06-.09,.1-.12,.07-.05,.18-.06,.27-.02,.14,.06,.21,.23,.14,.37Zm-.3,2.14c0-.06,.02-.11,.04-.15,.05-.08,.14-.13,.24-.13,.16,0,.28,.12,.28,.28s-.12,.28-.28,.28c-.04,0-.07,0-.1-.02-.11-.04-.18-.14-.18-.26Zm1.5,7.51c-2.07,0-3.75-1.68-3.75-3.75,0-.82,.26-1.58,.72-2.21,.33-.45,.76-.83,1.28-1.1,.13,.15,.32,.25,.53,.25,.39,0,.7-.31,.7-.7,0,0,0-.01,0-.02l2.73-.89c.05,.13,.12,.26,.2,.37l-2.12,1.91c-.19-.12-.43-.14-.65-.04-.34,.15-.49,.53-.37,.87,0,.02,.01,.04,.02,.05,.07,.16,.19,.27,.33,.34,.18,.09,.39,.1,.59,0,.35-.16,.51-.57,.36-.92v-.02l2.1-1.91c.1,.1,.22,.19,.34,.26l-1.15,2.59c-.22-.03-.45,.04-.61,.22-.25,.27-.24,.69,.01,.95,.01,.01,.02,.02,.04,.04,.12,.11,.28,.17,.44,.18,.2,0,.4-.07,.54-.23,.26-.29,.24-.73-.05-.98,0,0-.01,0-.02-.01l1.15-2.58c.14,.05,.28,.08,.43,.09v2.82c-.21,.06-.39,.22-.47,.45-.11,.34,.06,.71,.39,.85v.04c-.32,1.74-1.85,3.07-3.69,3.07Zm.02-5.29s-.07,.02-.1,.02c-.11,0-.22-.06-.27-.16-.02-.05-.03-.1-.02-.16,.01-.09,.07-.17,.16-.21,.14-.06,.31,0,.37,.14,.06,.14,0,.31-.14,.37Zm1.93,1.26s-.06,.05-.08,.06c-.1,.05-.22,.04-.31-.04-.04-.04-.07-.08-.08-.13-.03-.09,0-.19,.06-.26,.1-.12,.28-.12,.39-.02,.11,.1,.12,.28,.02,.39Zm9.7,.29c0,2.07-1.68,3.75-3.75,3.75-1.84,0-3.37-1.33-3.68-3.07v-.03h0c.18-.08,.33-.23,.4-.43,.12-.37-.08-.76-.45-.88,0,0-.02,0-.02,0v-2.82c.14-.01,.29-.05,.42-.09l1.15,2.58c-.17,.14-.27,.37-.25,.6,.04,.36,.35,.63,.71,.62,.02,0,.04,0,.06,0,.17-.02,.32-.09,.43-.21,.14-.14,.21-.34,.19-.55-.04-.39-.38-.66-.77-.62,0,0-.01,0-.02,0l-1.16-2.59c.12-.07,.24-.16,.34-.26l2.11,1.9c-.1,.2-.1,.44,.02,.65,.18,.32,.58,.44,.9,.28,.02,0,.03-.01,.05-.02,.15-.08,.25-.22,.31-.37,.07-.19,.05-.4-.05-.59-.19-.33-.62-.45-.95-.26,0,0-.01,.01-.02,.01l-2.12-1.91c.08-.12,.14-.24,.19-.37l2.73,.88c0,.22,.09,.45,.29,.59,.29,.21,.7,.16,.93-.11h0c1.21,.64,1.99,1.9,1.99,3.31Zm-5.75-.45c-.02-.15,.09-.29,.25-.31,.15-.01,.29,.1,.31,.25,0,.04,0,.07-.01,.11-.03,.11-.12,.19-.24,.2-.06,0-.11,0-.16-.03-.08-.04-.14-.12-.15-.22Zm1.97-1.61c.13-.07,.3-.03,.38,.11,.02,.03,.03,.07,.04,.1,.02,.11-.04,.22-.14,.28-.05,.03-.1,.04-.15,.04-.09,0-.18-.05-.23-.14-.08-.13-.03-.31,.1-.38Zm1.55-1.71c0,.05-.02,.11-.05,.15-.03,.04-.07,.07-.12,.09-.08,.04-.19,.03-.27-.03-.12-.09-.15-.27-.06-.39,.09-.12,.26-.15,.39-.06,.03,.02,.05,.05,.07,.07,0,.01,0,.02,.01,.03h0s.03,.08,.03,.13Zm3.96-1.54c-.83,1.14-2.19,1.7-3.54,1.51h0s0-.02,0-.02c-.02-.2-.11-.39-.29-.51-.31-.23-.75-.16-.97,.15,0,0,0,.01-.01,.02l-2.74-.89c.02-.11,.03-.21,.03-.32,0-.03,0-.06,0-.08l2.88-.31c.08,.21,.27,.37,.5,.42,.36,.07,.71-.14,.81-.49,0-.02,.01-.04,.01-.06,.04-.16,0-.33-.07-.47-.09-.17-.26-.31-.47-.35-.38-.08-.75,.16-.83,.54,0,0,0,.01,0,.02l-2.9,.31c-.03-.13-.07-.25-.14-.37l2.53-1.47c.16,.16,.39,.23,.63,.18,.36-.08,.59-.42,.54-.77,0-.02,0-.04,0-.06-.04-.16-.13-.31-.25-.4-.16-.12-.36-.17-.57-.13-.38,.08-.62,.45-.54,.83,0,0,0,.01,0,.02l-2.55,1.48c-.07-.1-.17-.19-.26-.28l1.73-2.39c.21,.08,.45,.05,.65-.09,.29-.21,.37-.61,.19-.91,.55-.54,1.25-.88,2.02-1,.98-.16,1.98,.08,2.79,.67,.81,.59,1.34,1.46,1.49,2.45,.16,.99-.09,1.98-.67,2.79Zm-4.28-.78c.03-.15,.18-.24,.33-.21,.03,0,.07,.02,.09,.04,.09,.06,.14,.17,.12,.29-.01,.06-.04,.1-.07,.14-.06,.07-.16,.1-.26,.08-.15-.03-.25-.18-.22-.33Zm-.49-2.37s.07,0,.1,0c.11,.02,.2,.1,.23,.21,.01,.06,0,.11-.01,.16-.03,.09-.11,.16-.21,.17-.15,.03-.3-.06-.33-.22-.03-.15,.06-.3,.22-.33Z" />
        </g>
    </g>
</svg>