<svg id="points-two-toned" viewBox="0 0 40 40">
    <g transform="translate(-1309 -220)">
        <path d="M363.159,559a12.727,12.727,0,1,0,0,18A12.723,12.723,0,0,0,363.159,559Z"
            transform="translate(978.475 -327.999)" fill="#8EF6FF" />
        <path d="M363.159,559a12.727,12.727,0,1,0,0,18A12.723,12.723,0,0,0,363.159,559Z"
            transform="translate(971.203 -327.999)" fill="#0097E6" />
    </g>
    <g transform="translate(3 6)">
        <path fill="#ffffff"
            d="M9.66,6.67l4.56,.24c2.84,.15,5.14,1.3,4.97,4.51-.16,3.08-2.6,4.32-5.36,4.17l-1.52-.08-.23,4.3-3.12-.16,.69-12.98Zm4.15,6.45c1.52,.08,2.28-.59,2.35-1.87,.07-1.31-.74-1.8-2.24-1.88l-1.27-.07-.2,3.74,1.36,.07Z" />
    </g>
</svg>