<svg id="present-outlined" viewBox="0 0 33 30">

    <g>
        <path
            d="M31.5,15v12c0,1.66-1.34,3-3,3H4.5c-1.66,0-3-1.34-3-3V15c-.83,0-1.5-.67-1.5-1.5v-4.5c0-1.66,1.34-3,3-3H7.76c-.17-.48-.26-.99-.26-1.5C7.5,2.01,9.51,0,12,0c1.5,0,2.82,.75,3.65,1.86h0l.85,1.14,.85-1.15h0c.83-1.1,2.15-1.85,3.65-1.85,2.49,0,4.5,2.01,4.5,4.5,0,.51-.09,1.02-.26,1.5h4.76c1.66,0,3,1.34,3,3v4.5c0,.83-.67,1.5-1.5,1.5M4.5,27H15V15H4.5v12m24,0V15h-10.5v12h10.5M12,3c-.83,0-1.5,.67-1.5,1.5s.67,1.5,1.5,1.5,1.5-.67,1.5-1.5-.67-1.5-1.5-1.5m9,0c-.83,0-1.5,.67-1.5,1.5s.67,1.5,1.5,1.5,1.5-.67,1.5-1.5-.67-1.5-1.5-1.5M3,9v3H15v-3H3m15,0v3h12v-3h-12Z" />
    </g>
</svg>