<svg id="safebox-outlined" viewBox="0 0 30 31.5">
    <g>
        <path
            d="M12,15c0-1.65,1.35-3,3-3s3,1.35,3,3-1.35,3-3,3-3-1.35-3-3m-3.3,8.55l-2.25-2.1,2.25-2.25c-.75-1.2-1.2-2.7-1.2-4.2s.45-3,1.2-4.05l-2.25-2.25,2.25-2.25,2.1,2.25c1.2-.75,2.7-1.2,4.2-1.2s3,.45,4.2,1.2l2.25-2.25,2.1,2.1-2.25,2.25c.75,1.2,1.2,2.7,1.2,4.2s-.45,3-1.2,4.2l2.25,2.25-2.1,2.1-2.25-2.25c-1.2,.75-2.7,1.2-4.2,1.2s-3-.45-4.05-1.2l-2.25,2.25m6.3-13.05c-2.55,0-4.5,1.95-4.5,4.5s1.95,4.5,4.5,4.5,4.5-1.95,4.5-4.5-1.95-4.5-4.5-4.5M27,0c1.65,0,3,1.35,3,3V27c0,1.65-1.35,3-3,3h-1.5v1.5h-6v-1.5H10.5v1.5H4.5v-1.5h-1.5c-1.65,0-3-1.35-3-3V3C0,1.35,1.35,0,3,0H27m0,27V3H3V27H27Z" />
    </g>
</svg>