<svg id="share-variant-outlined" viewBox="0 0 27 29.86">
    <g>
        <path
            d="M22.5,21.12c-1.14,0-2.16,.45-2.94,1.16l-10.7-6.23c.08-.34,.14-.69,.14-1.05s-.06-.71-.14-1.05l10.58-6.17c.81,.75,1.87,1.21,3.06,1.21,2.49,0,4.5-2.01,4.5-4.5S24.99,0,22.5,0s-4.5,2.01-4.5,4.5c0,.36,.06,.7,.14,1.05L7.56,11.72c-.81-.75-1.88-1.22-3.06-1.22-2.49,0-4.5,2.01-4.5,4.5s2.01,4.5,4.5,4.5c1.18,0,2.25-.47,3.06-1.22l10.68,6.23c-.08,.31-.12,.65-.12,.99,0,2.42,1.96,4.36,4.38,4.36s4.38-1.95,4.38-4.36-1.96-4.38-4.38-4.38m0-18.12c.82,0,1.5,.67,1.5,1.5s-.68,1.5-1.5,1.5-1.5-.67-1.5-1.5,.68-1.5,1.5-1.5M4.5,16.5c-.83,0-1.5-.67-1.5-1.5s.67-1.5,1.5-1.5,1.5,.67,1.5,1.5-.67,1.5-1.5,1.5m18,10.5c-.82,0-1.5-.68-1.5-1.5s.68-1.5,1.5-1.5,1.5,.68,1.5,1.5-.68,1.5-1.5,1.5Z" />
    </g>
</svg>