<svg id="textbox-search-outline" viewBox="0 0 29.08 30.58">
    <g>
        <path
            d="M18.75,13.5c3.75,0,6.75,3,6.75,6.75,0,1.32-.38,2.56-1.04,3.6l4.62,4.65-2.08,2.08-4.68-4.6c-1.04,.65-2.27,1.02-3.57,1.02-3.75,0-6.75-3-6.75-6.75s3-6.75,6.75-6.75m0,3c-2.07,0-3.75,1.68-3.75,3.75s1.68,3.75,3.75,3.75,3.75-1.68,3.75-3.75-1.68-3.75-3.75-3.75M3,0H24c1.67,0,3,1.33,3,3V15.04c-.75-1.2-1.79-2.23-3-3.04V3H3V24h6.75c.47,1.12,1.14,2.13,1.96,3H3c-1.67,0-3-1.33-3-3V3C0,1.33,1.33,0,3,0m3,6h15v3H6v-3m0,6h7.55c-1.2,.75-2.23,1.79-3.04,3H6v-3m0,6h3.26c-.16,.75-.26,1.5-.26,2.25v.75h-3v-3Z" />
    </g>
</svg>